Coordinates
version=1
nRows=10
nColumns=28
inDegrees=yes

Units are S.I. units (second, meters, Newtons, ...)
Angles are in degrees.

endheader
time	pelvis_tilt	pelvis_list	pelvis_rotation	pelvis_tx	pelvis_ty	pelvis_tz	hip_flexion_r	hip_adduction_r	hip_rotation_r	knee_angle_r	ankle_angle_r	subtalar_angle_r	mtp_angle_r	hip_flexion_l	hip_adduction_l	hip_rotation_l	knee_angle_l	socket_flexion	socket_adduction	socket_rotation	socket_tx	socket_ty	socket_tz	foot_flex	lumbar_extension	lumbar_bending	lumbar_rotation
      0.00000000	     -0.84896305	     -7.42251535	     -7.60133274	     -0.91199757	      0.98821921	      0.31529253	    -25.38490303	      9.21682241	      4.55714944	     -2.99229274	      6.27797175	     -4.76307169	     13.71996084	     26.72389890	    -10.35008422	      7.58030132	      1.55675712	      5.30615839	      0.00000000	      0.00000000	      0.00000000	      0.00000000	      0.00000000	     -0.48240220	    -10.92154214	      5.75587598	     10.82947511
      0.00416667	     -0.91281005	     -7.43824668	     -7.56807811	     -0.90647090	      0.98757642	      0.31499779	    -25.48746670	      9.22320517	      4.63102628	     -3.22933318	      6.23537939	     -4.77083544	     13.71959558	     26.55051933	    -10.26882013	      7.63006391	      1.53058425	      5.28261804	      0.00000000	      0.00000000	      0.00000000	      0.00000000	      0.00000000	     -0.57670304	    -10.79057084	      5.75828874	     10.83189378
      0.00833333	     -0.82168212	     -7.44628761	     -7.92334029	     -0.90094258	      0.98744017	      0.31534222	    -25.49080573	      9.05299417	      4.78146756	     -4.02266575	      6.08219763	     -5.00744887	     13.96907066	     25.74071658	    -10.41385939	      7.38887140	      2.50121775	      5.79246494	      0.00000000	      0.00000000	      0.00000000	      0.00000000	      0.00000000	     -1.03218194	    -10.97066689	      5.62122548	     11.26932826
      0.01250000	     -0.88122746	     -7.44748392	     -7.91508544	     -0.89515259	      0.98684476	      0.31510220	    -25.49995894	      9.03685834	      4.81166059	     -4.46884905	      5.93019533	     -5.06729515	     13.95395068	     25.52348039	    -10.33982818	      7.52036563	      2.52953113	      5.77891336	      0.00000000	      0.00000000	      0.00000000	      0.00000000	      0.00000000	     -1.31810276	    -10.90257887	      5.58001539	     11.24957814
      0.01666667	     -0.95560127	     -7.46650668	     -7.86107483	     -0.88897182	      0.98621666	      0.31474036	    -25.59047523	      9.04487378	      4.87352390	     -4.74912876	      5.86167928	     -5.08091843	     13.94953072	     25.33110477	    -10.24403169	      7.57938371	      2.50562248	      5.76923676	      0.00000000	      0.00000000	      0.00000000	      0.00000000	      0.00000000	     -1.41370095	    -10.74961384	      5.59977879	     11.24873422
      0.02083333	     -1.03589350	     -7.49514838	     -7.96806406	     -0.88312300	      0.98575983	      0.31458744	    -25.31793054	      9.01566933	      4.65938033	     -5.70032714	      5.51687682	     -5.34112965	     13.91728119	     24.99795159	    -10.26372064	      7.68859862	      2.83433289	      5.92473068	      0.00000000	      0.00000000	      0.00000000	      0.00000000	      0.00000000	     -1.95609094	    -10.73975882	      5.58483946	     11.24861448
      0.02500000	     -1.13345890	     -7.46519484	     -7.97189154	     -0.87692053	      0.98518682	      0.31439237	    -25.24190051	      8.97133447	      4.74771321	     -6.26090029	      5.33656312	     -5.40412174	     13.92223463	     24.74654443	    -10.18192402	      7.88838432	      3.00025141	      6.01671663	      0.00000000	      0.00000000	      0.00000000	      0.00000000	      0.00000000	     -2.18661612	    -10.63514240	      5.48261936	     11.25063815
      0.02916667	     -1.40087498	     -7.41998803	     -8.24822406	     -0.87010335	      0.98455738	      0.31462496	    -24.90585938	      8.82585645	      4.76312696	     -7.02227917	      5.09895478	     -5.59757863	     14.28185377	     24.18426403	    -10.26364787	      7.77189239	      4.26635676	      6.79643928	      0.00000000	      0.00000000	      0.00000000	      0.00000000	      0.00000000	     -2.47425052	    -10.23797563	      5.39888097	     11.52084076
      0.03333333	     -1.42515721	     -7.39325932	     -8.27296670	     -0.86381090	      0.98424593	      0.31437073	    -24.82996867	      8.74980738	      4.75603869	     -7.68501596	      4.76028084	     -5.70931929	     14.30307146	     23.84759853	    -10.17070957	      7.86847896	      4.40428457	      6.87872771	      0.00000000	      0.00000000	      0.00000000	      0.00000000	      0.00000000	     -2.76714965	    -10.21411866	      5.32036849	     11.52142575
      0.03750000	     -1.48529671	     -7.32970657	     -8.26539997	     -0.85741994	      0.98393236	      0.31413449	    -24.72849143	      8.66755028	      4.82734952	     -8.32410920	      4.48379000	     -5.80059642	     14.30967350	     23.55460097	    -10.04192993	      8.04568266	      4.54029138	      6.98415830	      0.00000000	      0.00000000	      0.00000000	      0.00000000	      0.00000000	     -3.01469499	    -10.13063107	      5.18672725	     11.50637696
